<svg width="1280" height="720" xmlns="http://www.w3.org/2000/svg" xmlns:xlink="http://www.w3.org/1999/xlink" overflow="hidden"><g><rect x="0" y="0" width="1280" height="720" fill="#FFFFFF"/><path d="M0 133 1280 133" stroke="#000000" stroke-width="2" stroke-miterlimit="8" stroke-dasharray="8 6" fill="none" fill-rule="evenodd"/><path d="M0 284 1280 284" stroke="#000000" stroke-width="2" stroke-miterlimit="8" stroke-dasharray="8 6" fill="none" fill-rule="evenodd"/><path d="M0 436 1280 436" stroke="#000000" stroke-width="2" stroke-miterlimit="8" stroke-dasharray="8 6" fill="none" fill-rule="evenodd"/><path d="M0 586 1280 586" stroke="#000000" stroke-width="2" stroke-miterlimit="8" stroke-dasharray="8 6" fill="none" fill-rule="evenodd"/><path d="M582 313.334C582 300.447 592.447 290 605.334 290L1239.67 290C1252.55 290 1263 300.447 1263 313.334L1263 406.666C1263 419.553 1252.55 430 1239.67 430L605.334 430C592.447 430 582 419.553 582 406.666Z" stroke="#000000" stroke-width="4" stroke-miterlimit="8" fill="#FBE3D6" fill-rule="evenodd"/><text font-family="Aptos,Aptos_MSFontService,sans-serif" font-weight="700" font-size="32" transform="translate(809.712 371)">Model Executor</text><path d="M582 162.167C582 149.372 592.372 139 605.167 139L891.833 139C904.628 139 915 149.372 915 162.167L915 254.833C915 267.628 904.628 278 891.833 278L605.167 278C592.372 278 582 267.628 582 254.833Z" stroke="#000000" stroke-width="4" stroke-miterlimit="8" fill="#E8E8E8" fill-rule="evenodd"/><text font-family="Aptos,Aptos_MSFontService,sans-serif" font-weight="700" font-size="32" transform="translate(634.437 200)">Neural Network</text><text font-family="Aptos,Aptos_MSFontService,sans-serif" font-weight="700" font-size="32" transform="translate(649.19 238)">Model Loader</text><path d="M931 163.167C931 150.372 941.372 140 954.167 140L1239.83 140C1252.63 140 1263 150.372 1263 163.167L1263 255.833C1263 268.628 1252.63 279 1239.83 279L954.167 279C941.372 279 931 268.628 931 255.833Z" stroke="#000000" stroke-width="4" stroke-miterlimit="8" fill="#FBE3D6" fill-rule="evenodd"/><text font-family="Aptos,Aptos_MSFontService,sans-serif" font-weight="700" font-size="32" transform="translate(994.244 201)">Ternary</text><text font-family="Aptos,Aptos_MSFontService,sans-serif" font-weight="700" font-size="32" transform="translate(1108.34 201)">BitNet</text><text font-family="Aptos,Aptos_MSFontService,sans-serif" font-weight="700" font-size="32" transform="translate(1046.76 239)">Loader</text><path d="M931 465.167C931 452.372 941.372 442 954.167 442L1239.83 442C1252.63 442 1263 452.372 1263 465.167L1263 557.833C1263 570.628 1252.63 581 1239.83 581L954.167 581C941.372 581 931 570.628 931 557.833Z" stroke="#000000" stroke-width="4" stroke-miterlimit="8" fill="#FBE3D6" fill-rule="evenodd"/><text font-family="Aptos,Aptos_MSFontService,sans-serif" font-weight="700" font-size="32" transform="translate(1025.72 523)">Simulator</text><path d="M582 465.167C582 452.372 592.372 442 605.167 442L891.833 442C904.628 442 915 452.372 915 465.167L915 557.833C915 570.628 904.628 581 891.833 581L605.167 581C592.372 581 582 570.628 582 557.833Z" stroke="#000000" stroke-width="4" stroke-miterlimit="8" fill="#E8E8E8" fill-rule="evenodd"/><text font-family="Aptos,Aptos_MSFontService,sans-serif" font-weight="700" font-size="32" transform="translate(668.377 523)">Real Driver</text><path d="M1102 612.167C1102 601.029 1111.03 592 1122.17 592L1242.83 592C1253.97 592 1263 601.029 1263 612.167L1263 692.833C1263 703.971 1253.97 713 1242.83 713L1122.17 713C1111.03 713 1102 703.971 1102 692.833Z" stroke="#000000" stroke-width="4" stroke-miterlimit="8" fill="#FBE3D6" fill-rule="evenodd"/><text font-family="Aptos,Aptos_MSFontService,sans-serif" font-weight="700" font-size="26.6667" transform="translate(1150.63 646)">Logic</text><text font-family="Aptos,Aptos_MSFontService,sans-serif" font-weight="700" font-size="26.6667" transform="translate(1145.22 678)">Model</text><path d="M931 612.167C931 601.029 940.029 592 951.167 592L1071.83 592C1082.97 592 1092 601.029 1092 612.167L1092 692.833C1092 703.971 1082.97 713 1071.83 713L951.167 713C940.029 713 931 703.971 931 692.833Z" stroke="#000000" stroke-width="4" stroke-miterlimit="8" fill="#E8E8E8" fill-rule="evenodd"/><text font-family="Aptos,Aptos_MSFontService,sans-serif" font-weight="700" font-size="26.6667" transform="translate(960.333 646)">Physical</text><text font-family="Aptos,Aptos_MSFontService,sans-serif" font-weight="700" font-size="26.6667" transform="translate(973.86 678)">Model</text><path d="M582 611.167C582 600.029 591.029 591 602.167 591L894.833 591C905.971 591 915 600.029 915 611.167L915 691.833C915 702.971 905.971 712 894.833 712L602.167 712C591.029 712 582 702.971 582 691.833Z" stroke="#000000" stroke-width="4" stroke-miterlimit="8" fill="#E8E8E8" fill-rule="evenodd"/><text font-family="Aptos,Aptos_MSFontService,sans-serif" font-weight="700" font-size="32" transform="translate(680.267 643)">Y</text><text font-family="Aptos,Aptos_MSFontService,sans-serif" font-weight="700" font-size="32" transform="translate(697.507 643)">-</text><text font-family="Aptos,Aptos_MSFontService,sans-serif" font-weight="700" font-size="32" transform="translate(708.34 643)">shaped</text><text font-family="Aptos,Aptos_MSFontService,sans-serif" font-weight="700" font-size="32" transform="translate(625.987 681)">3</text><text font-family="Aptos,Aptos_MSFontService,sans-serif" font-weight="700" font-size="32" transform="translate(643.154 681)">-</text><text font-family="Aptos,Aptos_MSFontService,sans-serif" font-weight="700" font-size="32" transform="translate(653.987 681)">terminal RRAM</text><path d="M931 28.667C931 17.8052 939.805 9 950.667 9L1243.33 9C1254.19 9 1263 17.8052 1263 28.667L1263 107.333C1263 118.195 1254.19 127 1243.33 127L950.667 127C939.805 127 931 118.195 931 107.333Z" stroke="#000000" stroke-width="4" stroke-miterlimit="8" fill="#FBE3D6" fill-rule="evenodd"/><text font-family="Aptos,Aptos_MSFontService,sans-serif" font-weight="700" font-size="32" transform="translate(969.624 79)">BitNet</text><text font-family="Aptos,Aptos_MSFontService,sans-serif" font-weight="700" font-size="32" transform="translate(1068.12 79)">b1.58 2B4T</text><path d="M582 28.6672C582 17.8053 590.805 9 601.667 9L895.333 9C906.195 9 915 17.8053 915 28.6672L915 107.333C915 118.195 906.195 127 895.333 127L601.667 127C590.805 127 582 118.195 582 107.333Z" stroke="#000000" stroke-width="4" stroke-miterlimit="8" fill="#E8E8E8" fill-rule="evenodd"/><text font-family="Aptos,Aptos_MSFontService,sans-serif" font-weight="700" font-size="32" transform="translate(654.697 60)">Other Neural</text><text font-family="Aptos,Aptos_MSFontService,sans-serif" font-weight="700" font-size="32" transform="translate(637.877 98)">Network Model</text><text font-family="Aptos,Aptos_MSFontService,sans-serif" font-weight="700" font-size="37.3333" transform="translate(9.6 262)">Loader</text><text font-family="Aptos,Aptos_MSFontService,sans-serif" font-weight="700" font-size="37.3333" transform="translate(9.5999 413)">Executor</text><text font-family="Aptos,Aptos_MSFontService,sans-serif" font-weight="700" font-size="37.3333" transform="translate(9.6 564)">Driver</text><text font-family="Aptos,Aptos_MSFontService,sans-serif" font-weight="700" font-size="37.3333" transform="translate(9.6 696)">Hardware</text><text font-family="Aptos,Aptos_MSFontService,sans-serif" font-weight="700" font-size="37.3333" transform="translate(9.6 112)">Model</text><text font-family="Arial,Arial_MSFontService,sans-serif" font-weight="400" font-size="24" transform="translate(197.471 173)">•</text><text font-family="Calibri,Calibri_MSFontService,sans-serif" font-weight="400" font-size="24" transform="translate(227.471 173)">Load the model into memory.</text><text font-family="Arial,Arial_MSFontService,sans-serif" font-weight="400" font-size="24" transform="translate(197.471 202)">•</text><text font-family="Calibri,Calibri_MSFontService,sans-serif" font-weight="400" font-size="24" transform="translate(227.471 202)">Redirect</text><text font-family="Calibri,Calibri_MSFontService,sans-serif" font-weight="400" font-size="24" transform="translate(313.904 202)">matrix multiplication</text><text font-family="Calibri,Calibri_MSFontService,sans-serif" font-weight="400" font-size="24" transform="translate(227.471 231)">operations from CPU/GPU to the</text><text font-family="Calibri,Calibri_MSFontService,sans-serif" font-weight="400" font-size="24" transform="translate(227.471 260)">Y</text><text font-family="Calibri,Calibri_MSFontService,sans-serif" font-weight="400" font-size="24" transform="translate(239.138 260)">-</text><text font-family="Calibri,Calibri_MSFontService,sans-serif" font-weight="400" font-size="24" transform="translate(246.471 260)">shaped 3</text><text font-family="Calibri,Calibri_MSFontService,sans-serif" font-weight="400" font-size="24" transform="translate(334.971 260)">-</text><text font-family="Calibri,Calibri_MSFontService,sans-serif" font-weight="400" font-size="24" transform="translate(342.304 260)">terminal RRAM</text><text font-family="Calibri,Calibri_MSFontService,sans-serif" font-weight="400" font-size="24" transform="translate(490.544 260)">.</text><text font-family="Arial,Arial_MSFontService,sans-serif" font-weight="400" font-size="24" transform="translate(197.471 61)">•</text><text font-family="Calibri,Calibri_MSFontService,sans-serif" font-weight="400" font-size="24" transform="translate(227.471 61)">Binary</text><text font-family="Calibri,Calibri_MSFontService,sans-serif" font-weight="400" font-size="24" transform="translate(294.924 61)">Neural Network</text><text font-family="Arial,Arial_MSFontService,sans-serif" font-weight="400" font-size="24" transform="translate(197.471 90)">•</text><text font-family="Calibri,Calibri_MSFontService,sans-serif" font-weight="400" font-size="24" transform="translate(227.471 90)">Ternary Neural Network</text><text font-family="Arial,Arial_MSFontService,sans-serif" font-weight="400" font-size="24" transform="translate(197.471 353)">•</text><text font-family="Calibri,Calibri_MSFontService,sans-serif" font-weight="400" font-size="24" transform="translate(227.471 353)">Configure the Loader.</text><text font-family="Arial,Arial_MSFontService,sans-serif" font-weight="400" font-size="24" transform="translate(197.471 382)">•</text><text font-family="Calibri,Calibri_MSFontService,sans-serif" font-weight="400" font-size="24" transform="translate(227.471 382)">Entry point for user interaction.</text><text font-family="Arial,Arial_MSFontService,sans-serif" font-weight="400" font-size="24" transform="translate(197.471 461)">•</text><text font-family="Calibri,Calibri_MSFontService,sans-serif" font-weight="400" font-size="24" transform="translate(227.471 461)">Control Hardware.</text><text font-family="Arial,Arial_MSFontService,sans-serif" font-weight="400" font-size="24" transform="translate(197.471 490)">•</text><text font-family="Calibri,Calibri_MSFontService,sans-serif" font-weight="400" font-size="24" transform="translate(227.471 490)">Use a Virtual Matrix to combine</text><text font-family="Calibri,Calibri_MSFontService,sans-serif" font-weight="400" font-size="24" transform="translate(227.471 519)">multiple hardware units to</text><text font-family="Calibri,Calibri_MSFontService,sans-serif" font-weight="400" font-size="24" transform="translate(227.471 548)">compute large</text><text font-family="Calibri,Calibri_MSFontService,sans-serif" font-weight="400" font-size="24" transform="translate(367.984 548)">-</text><text font-family="Calibri,Calibri_MSFontService,sans-serif" font-weight="400" font-size="24" transform="translate(375.317 548)">scale matrix</text><text font-family="Calibri,Calibri_MSFontService,sans-serif" font-weight="400" font-size="24" transform="translate(227.471 577)">multiplications.</text><text font-family="Arial,Arial_MSFontService,sans-serif" font-weight="400" font-size="24" transform="translate(197.471 645)">•</text><text font-family="Calibri,Calibri_MSFontService,sans-serif" font-weight="400" font-size="24" transform="translate(227.471 645)">Software simulating hardware.</text><text font-family="Arial,Arial_MSFontService,sans-serif" font-weight="400" font-size="24" transform="translate(197.471 674)">•</text><text font-family="Calibri,Calibri_MSFontService,sans-serif" font-weight="400" font-size="24" transform="translate(227.471 674)">Real hardware.</text></g></svg>